<svg xmlns="http://www.w3.org/2000/svg" xmlns:xlink="http://www.w3.org/1999/xlink" width="500" zoomAndPan="magnify" viewBox="0 0 375 374.999991" height="500" preserveAspectRatio="xMidYMid meet" version="1.0"><defs><clipPath id="ead2c9a0e2"><path d="M 64.222656 63.148438 L 297.472656 63.148438 L 297.472656 296.398438 L 64.222656 296.398438 Z M 64.222656 63.148438 " clip-rule="nonzero"/></clipPath></defs><g clip-path="url(#ead2c9a0e2)"><path fill="#ed1d2b" d="M 297.488281 179.785156 C 297.488281 244.195312 245.273438 296.410156 180.863281 296.410156 C 116.449219 296.410156 64.234375 244.195312 64.234375 179.785156 C 64.234375 115.371094 116.449219 63.15625 180.863281 63.15625 C 245.273438 63.15625 297.488281 115.371094 297.488281 179.785156 " fill-opacity="1" fill-rule="nonzero"/></g><path fill="#ffffff" d="M 238.398438 122.25 C 232.757812 116.609375 223.617188 116.609375 217.980469 122.25 L 180.863281 159.367188 L 143.742188 122.25 C 138.105469 116.609375 128.964844 116.609375 123.324219 122.25 C 117.6875 127.886719 117.6875 137.027344 123.324219 142.664062 L 160.445312 179.785156 L 123.324219 216.902344 C 117.6875 222.542969 117.6875 231.683594 123.324219 237.320312 C 128.964844 242.957031 138.105469 242.957031 143.742188 237.320312 L 180.863281 200.199219 L 217.980469 237.320312 C 223.617188 242.957031 232.757812 242.957031 238.398438 237.320312 C 244.035156 231.683594 244.035156 222.542969 238.398438 216.902344 L 201.277344 179.785156 L 238.398438 142.664062 C 244.035156 137.027344 244.035156 127.886719 238.398438 122.25 " fill-opacity="1" fill-rule="nonzero"/></svg>